<svg xmlns="http://www.w3.org/2000/svg" version="1.1" xmlns:xlink="http://www.w3.org/1999/xlink" width="1000" height="1000"><style>
    #light-icon {
      display: inline;
    }
    #dark-icon {
      display: none;
    }

    @media (prefers-color-scheme: dark) {
      #light-icon {
        display: none;
      }
      #dark-icon {
        display: inline;
      }
    }
  </style><g id="light-icon"><svg xmlns="http://www.w3.org/2000/svg" version="1.1" xmlns:xlink="http://www.w3.org/1999/xlink" width="1000" height="1000"><g><g transform="matrix(0.9765625,0,0,0.9765625,95.703125,0)"><svg xmlns="http://www.w3.org/2000/svg" version="1.1" xmlns:xlink="http://www.w3.org/1999/xlink" width="828" height="1024"><svg version="1.1" id="Ebene_1" xmlns="http://www.w3.org/2000/svg" xmlns:xlink="http://www.w3.org/1999/xlink" x="0px" y="0px" viewBox="0 0 828 1024" style="enable-background:new 0 0 828 1024;" xml:space="preserve">
<style type="text/css">
	.st0{fill:#93DA97;}
</style>
<path class="st0" d="M779.15,102.02h-7.22c0.08-0.73,0.12-1.47,0.12-2.23V23.04c0-11.62-9.43-21.04-21.06-21.04h-1.8
	c-11.63,0-21.06,9.42-21.06,21.04v76.75c0,0.75,0.04,1.49,0.12,2.23h-52.59c0.08-0.73,0.12-1.47,0.12-2.23V23.04
	c0-11.62-9.43-21.04-21.06-21.04h-1.8c-11.63,0-21.06,9.42-21.06,21.04v76.75c0,0.75,0.04,1.49,0.12,2.23H579.4
	c0.08-0.73,0.12-1.47,0.12-2.23V23.04c0-11.62-9.43-21.04-21.06-21.04h-1.8c-11.63,0-21.06,9.42-21.06,21.04v76.75
	c0,0.75,0.04,1.49,0.12,2.23h-52.59c0.08-0.73,0.12-1.47,0.12-2.23V23.04c0-11.62-9.43-21.04-21.06-21.04h-1.8
	c-11.63,0-21.06,9.42-21.06,21.04v76.75c0,0.75,0.04,1.49,0.12,2.23h-52.59c0.08-0.73,0.12-1.47,0.12-2.23V23.04
	C387,11.42,377.57,2,365.94,2h-1.8c-11.63,0-21.06,9.42-21.06,21.04v76.75c0,0.75,0.04,1.49,0.12,2.23h-52.59
	c0.08-0.73,0.12-1.47,0.12-2.23V23.04c0-11.62-9.43-21.04-21.06-21.04h-1.8c-11.63,0-21.06,9.42-21.06,21.04v76.75
	c0,0.75,0.04,1.49,0.12,2.23h-52.59c0.08-0.73,0.12-1.47,0.12-2.23V23.04c0-11.62-9.43-21.04-21.06-21.04h-1.8
	c-11.63,0-21.06,9.42-21.06,21.04v76.75c0,0.75,0.04,1.49,0.12,2.23H98.1c0.08-0.73,0.12-1.47,0.12-2.23V23.04
	C98.22,11.42,88.79,2,77.16,2h-1.8c-11.63,0-21.06,9.42-21.06,21.04v76.75c0,0.75,0.04,1.49,0.12,2.23h-5.57
	C22.98,102.02,2,122.98,2,148.83v729.71c0,25.86,20.98,46.82,46.85,46.82h5.45v75.6c0,11.62,9.43,21.04,21.06,21.04h1.8
	c11.63,0,21.06-9.42,21.06-21.04v-75.6h52.35v75.6c0,11.62,9.43,21.04,21.06,21.04h1.8c11.63,0,21.06-9.42,21.06-21.04v-75.6h52.35
	v75.6c0,11.62,9.43,21.04,21.06,21.04h1.8c11.63,0,21.06-9.42,21.06-21.04v-75.6h52.35v75.6c0,11.62,9.43,21.04,21.06,21.04h1.8
	c11.63,0,21.06-9.42,21.06-21.04v-75.6h52.35v75.6c0,11.62,9.43,21.04,21.06,21.04h1.8c11.63,0,21.06-9.42,21.06-21.04v-75.6h52.35
	v75.6c0,11.62,9.43,21.04,21.06,21.04h1.8c11.63,0,21.06-9.42,21.06-21.04v-75.6h52.35v75.6c0,11.62,9.43,21.04,21.06,21.04h1.8
	c11.63,0,21.06-9.42,21.06-21.04v-75.6h52.35v75.6c0,11.62,9.43,21.04,21.06,21.04h1.8c11.63,0,21.06-9.42,21.06-21.04v-75.6h7.1
	c25.88,0,46.85-20.96,46.85-46.82V148.83C826,122.98,805.02,102.02,779.15,102.02z M782.09,851.2c0,16.73-13.57,30.29-30.32,30.29
	H76.23c-16.74,0-30.32-13.56-30.32-30.29V176.19c0-16.73,13.57-30.29,30.32-30.29h675.55c16.74,0,30.32,13.56,30.32,30.29V851.2z"></path>
<path class="st0" d="M188.24,250.05h72.45v427.21c0,16.99,9.06,25.49,27.19,25.49h25.11v70.27h-32.31
	c-26.41,0-48.19-6.79-65.33-20.37c-18.07-13.81-27.1-37.03-27.1-69.66V250.05z"></path>
<path class="st0" d="M567.31,740.04h-1.39c-6.72,12.67-17.15,21.99-31.28,27.97c-13.9,6.21-33.13,9.32-57.69,9.32
	c-40.32-0.48-71.36-11.47-93.14-32.99c-22.94-21.04-34.41-47.93-34.41-80.69c0-31.32,9.96-57.26,29.89-77.83
	c19.92-21.04,49.12-31.79,87.58-32.28h100.43v-39.29c0.48-32.92-24.21-48.89-74.05-47.94c-18.08,0-32.34,1.92-42.76,5.77
	c-10.9,4.57-19.47,12.26-25.73,23.07l-57.02-44.89c27.56-37.1,68.21-55.17,121.94-54.22c45.39-0.48,81.63,8.37,108.73,26.54
	c27.09,18.65,40.87,50.7,41.34,96.13v254.31h-72.45V740.04z M567.31,615.17h-87.07c-42.27,0.96-63.17,15.92-62.69,44.87
	c0,12.68,5.45,23.45,16.37,32.3c10.45,9.81,27.75,14.72,51.9,14.72c30.41,0.48,51.89-3.23,64.43-11.13
	c11.38-7.9,17.07-25.84,17.07-53.84V615.17z"></path>
</svg></svg></g></g></svg></g><g id="dark-icon"><svg xmlns="http://www.w3.org/2000/svg" version="1.1" xmlns:xlink="http://www.w3.org/1999/xlink" width="1000" height="1000"><g><g transform="matrix(0.9765625,0,0,0.9765625,95.703125,0)"><svg xmlns="http://www.w3.org/2000/svg" version="1.1" xmlns:xlink="http://www.w3.org/1999/xlink" width="828" height="1024"><svg version="1.1" id="Ebene_1" xmlns="http://www.w3.org/2000/svg" xmlns:xlink="http://www.w3.org/1999/xlink" x="0px" y="0px" viewBox="0 0 828 1024" style="enable-background:new 0 0 828 1024;" xml:space="preserve">
<style type="text/css">
	.st0{fill:#93DA97;}
</style>
<path class="st0" d="M779.15,102.02h-7.22c0.08-0.73,0.12-1.47,0.12-2.23V23.04c0-11.62-9.43-21.04-21.06-21.04h-1.8
	c-11.63,0-21.06,9.42-21.06,21.04v76.75c0,0.75,0.04,1.49,0.12,2.23h-52.59c0.08-0.73,0.12-1.47,0.12-2.23V23.04
	c0-11.62-9.43-21.04-21.06-21.04h-1.8c-11.63,0-21.06,9.42-21.06,21.04v76.75c0,0.75,0.04,1.49,0.12,2.23H579.4
	c0.08-0.73,0.12-1.47,0.12-2.23V23.04c0-11.62-9.43-21.04-21.06-21.04h-1.8c-11.63,0-21.06,9.42-21.06,21.04v76.75
	c0,0.75,0.04,1.49,0.12,2.23h-52.59c0.08-0.73,0.12-1.47,0.12-2.23V23.04c0-11.62-9.43-21.04-21.06-21.04h-1.8
	c-11.63,0-21.06,9.42-21.06,21.04v76.75c0,0.75,0.04,1.49,0.12,2.23h-52.59c0.08-0.73,0.12-1.47,0.12-2.23V23.04
	C387,11.42,377.57,2,365.94,2h-1.8c-11.63,0-21.06,9.42-21.06,21.04v76.75c0,0.75,0.04,1.49,0.12,2.23h-52.59
	c0.08-0.73,0.12-1.47,0.12-2.23V23.04c0-11.62-9.43-21.04-21.06-21.04h-1.8c-11.63,0-21.06,9.42-21.06,21.04v76.75
	c0,0.75,0.04,1.49,0.12,2.23h-52.59c0.08-0.73,0.12-1.47,0.12-2.23V23.04c0-11.62-9.43-21.04-21.06-21.04h-1.8
	c-11.63,0-21.06,9.42-21.06,21.04v76.75c0,0.75,0.04,1.49,0.12,2.23H98.1c0.08-0.73,0.12-1.47,0.12-2.23V23.04
	C98.22,11.42,88.79,2,77.16,2h-1.8c-11.63,0-21.06,9.42-21.06,21.04v76.75c0,0.75,0.04,1.49,0.12,2.23h-5.57
	C22.98,102.02,2,122.98,2,148.83v729.71c0,25.86,20.98,46.82,46.85,46.82h5.45v75.6c0,11.62,9.43,21.04,21.06,21.04h1.8
	c11.63,0,21.06-9.42,21.06-21.04v-75.6h52.35v75.6c0,11.62,9.43,21.04,21.06,21.04h1.8c11.63,0,21.06-9.42,21.06-21.04v-75.6h52.35
	v75.6c0,11.62,9.43,21.04,21.06,21.04h1.8c11.63,0,21.06-9.42,21.06-21.04v-75.6h52.35v75.6c0,11.62,9.43,21.04,21.06,21.04h1.8
	c11.63,0,21.06-9.42,21.06-21.04v-75.6h52.35v75.6c0,11.62,9.43,21.04,21.06,21.04h1.8c11.63,0,21.06-9.42,21.06-21.04v-75.6h52.35
	v75.6c0,11.62,9.43,21.04,21.06,21.04h1.8c11.63,0,21.06-9.42,21.06-21.04v-75.6h52.35v75.6c0,11.62,9.43,21.04,21.06,21.04h1.8
	c11.63,0,21.06-9.42,21.06-21.04v-75.6h52.35v75.6c0,11.62,9.43,21.04,21.06,21.04h1.8c11.63,0,21.06-9.42,21.06-21.04v-75.6h7.1
	c25.88,0,46.85-20.96,46.85-46.82V148.83C826,122.98,805.02,102.02,779.15,102.02z M782.09,851.2c0,16.73-13.57,30.29-30.32,30.29
	H76.23c-16.74,0-30.32-13.56-30.32-30.29V176.19c0-16.73,13.57-30.29,30.32-30.29h675.55c16.74,0,30.32,13.56,30.32,30.29V851.2z"></path>
<path class="st0" d="M188.24,250.05h72.45v427.21c0,16.99,9.06,25.49,27.19,25.49h25.11v70.27h-32.31
	c-26.41,0-48.19-6.79-65.33-20.37c-18.07-13.81-27.1-37.03-27.1-69.66V250.05z"></path>
<path class="st0" d="M567.31,740.04h-1.39c-6.72,12.67-17.15,21.99-31.28,27.97c-13.9,6.21-33.13,9.32-57.69,9.32
	c-40.32-0.48-71.36-11.47-93.14-32.99c-22.94-21.04-34.41-47.93-34.41-80.69c0-31.32,9.96-57.26,29.89-77.83
	c19.92-21.04,49.12-31.79,87.58-32.28h100.43v-39.29c0.48-32.92-24.21-48.89-74.05-47.94c-18.08,0-32.34,1.92-42.76,5.77
	c-10.9,4.57-19.47,12.26-25.73,23.07l-57.02-44.89c27.56-37.1,68.21-55.17,121.94-54.22c45.39-0.48,81.63,8.37,108.73,26.54
	c27.09,18.65,40.87,50.7,41.34,96.13v254.31h-72.45V740.04z M567.31,615.17h-87.07c-42.27,0.96-63.17,15.92-62.69,44.87
	c0,12.68,5.45,23.45,16.37,32.3c10.45,9.81,27.75,14.72,51.9,14.72c30.41,0.48,51.89-3.23,64.43-11.13
	c11.38-7.9,17.07-25.84,17.07-53.84V615.17z"></path>
</svg></svg></g></g></svg></g></svg>